HIERARCHY
ROOT Hips
{
	OFFSET -14.64140 90.27770 -84.91600
	CHANNELS 6 Xposition Yposition Zposition Zrotation Xrotation Yrotation
	JOINT Spine
	{
		OFFSET 0.00000 13.20850 -1.60436
		CHANNELS 3 Zrotation Xrotation Yrotation
		JOINT Spine1
		{
			OFFSET 0.00000 8.61716 0.00000
			CHANNELS 3 Zrotation Xrotation Yrotation
			JOINT Spine2
			{
				OFFSET 0.00000 8.61717 0.00000
				CHANNELS 3 Zrotation Xrotation Yrotation
				JOINT Spine3
				{
					OFFSET 0.00000 8.61717 0.00000
					CHANNELS 3 Zrotation Xrotation Yrotation
					JOINT Neck
					{
						OFFSET 0.00000 11.07920 1.10792
						CHANNELS 3 Zrotation Xrotation Yrotation
						JOINT Neck1
						{
							OFFSET 0.00000 7.08032 0.00000
							CHANNELS 3 Zrotation Xrotation Yrotation
							JOINT Head
							{
								OFFSET 0.00000 7.08031 0.00000
								CHANNELS 3 Zrotation Xrotation Yrotation
								End site
								{
									OFFSET 0.00000 0.00000 0.00000
								}
							}
						}
					}
					JOINT RightShoulder
					{
						OFFSET -0.01000 7.91373 5.19711
						CHANNELS 3 Zrotation Xrotation Yrotation
						JOINT RightArm
						{
							OFFSET -18.41580 0.00000 0.00000
							CHANNELS 3 Zrotation Xrotation Yrotation
							JOINT RightForeArm
							{
								OFFSET -29.11090 0.00000 0.00000
								CHANNELS 3 Zrotation Xrotation Yrotation
								JOINT RightHand
								{
									OFFSET -24.65040 0.00000 0.00000
									CHANNELS 3 Zrotation Xrotation Yrotation
									JOINT RightHandThumb1
									{
										OFFSET -5.35114 -0.85590 3.97906
										CHANNELS 3 Zrotation Xrotation Yrotation
										JOINT RightHandThumb2
										{
											OFFSET -4.52789 0.00000 0.00000
											CHANNELS 3 Zrotation Xrotation Yrotation
											JOINT RightHandThumb3
											{
												OFFSET -2.46976 0.00000 0.00000
												CHANNELS 3 Zrotation Xrotation Yrotation
												End site
												{
													OFFSET 0.00000 0.00000 0.00000
												}
											}
										}
									}
									JOINT RightHandIndex1
									{
										OFFSET -14.26970 0.00000 2.88139
										CHANNELS 3 Zrotation Xrotation Yrotation
										JOINT RightHandIndex2
										{
											OFFSET -5.48836 0.00000 0.00000
											CHANNELS 3 Zrotation Xrotation Yrotation
											JOINT RightHandIndex3
											{
												OFFSET -3.01859 0.00000 0.00000
												CHANNELS 3 Zrotation Xrotation Yrotation
												End site
												{
													OFFSET 0.00000 0.00000 0.00000
												}
											}
										}
									}
									JOINT RightHandMiddle1
									{
										OFFSET -14.26970 0.00000 -0.09147
										CHANNELS 3 Zrotation Xrotation Yrotation
										JOINT RightHandMiddle2
										{
											OFFSET -6.17441 0.00000 0.00000
											CHANNELS 3 Zrotation Xrotation Yrotation
											JOINT RightHandMiddle3
											{
												OFFSET -3.56743 0.00000 0.00000
												CHANNELS 3 Zrotation Xrotation Yrotation
												End site
												{
													OFFSET 0.00000 0.00000 0.00000
												}
											}
										}
									}
									JOINT RightHandRing1
									{
										OFFSET -12.69180 0.00000 -3.06433
										CHANNELS 3 Zrotation Xrotation Yrotation
										JOINT RightHandRing2
										{
											OFFSET -5.62556 0.00000 0.00000
											CHANNELS 3 Zrotation Xrotation Yrotation
											JOINT RightHandRing3
											{
												OFFSET -3.56744 0.00000 0.00000
												CHANNELS 3 Zrotation Xrotation Yrotation
												End site
												{
													OFFSET 0.00000 0.00000 0.00000
												}
											}
										}
									}
									JOINT RightHandPinky1
									{
										OFFSET -11.11390 0.00000 -6.03719
										CHANNELS 3 Zrotation Xrotation Yrotation
										JOINT RightHandPinky2
										{
											OFFSET -4.52789 0.00000 0.00000
											CHANNELS 3 Zrotation Xrotation Yrotation
											JOINT RightHandPinky3
											{
												OFFSET -2.46976 0.00000 0.00000
												CHANNELS 3 Zrotation Xrotation Yrotation
												End site
												{
													OFFSET 0.00000 0.00000 0.00000
												}
											}
										}
									}
								}
							}
						}
					}
					JOINT LeftShoulder
					{
						OFFSET 0.01000 7.91373 5.19711
						CHANNELS 3 Zrotation Xrotation Yrotation
						JOINT LeftArm
						{
							OFFSET 18.41580 0.00000 0.00000
							CHANNELS 3 Zrotation Xrotation Yrotation
							JOINT LeftForeArm
							{
								OFFSET 29.11090 0.00000 0.00000
								CHANNELS 3 Zrotation Xrotation Yrotation
								JOINT LeftHand
								{
									OFFSET 24.65040 0.00000 0.00000
									CHANNELS 3 Zrotation Xrotation Yrotation
									JOINT LeftHandThumb1
									{
										OFFSET 5.35114 -0.85590 3.97906
										CHANNELS 3 Zrotation Xrotation Yrotation
										JOINT LeftHandThumb2
										{
											OFFSET 4.52789 0.00000 0.00000
											CHANNELS 3 Zrotation Xrotation Yrotation
											JOINT LeftHandThumb3
											{
												OFFSET 2.46977 0.00000 0.00000
												CHANNELS 3 Zrotation Xrotation Yrotation
												End site
												{
													OFFSET 0.00000 0.00000 0.00000
												}
											}
										}
									}
									JOINT LeftHandIndex1
									{
										OFFSET 14.26970 0.00000 2.88139
										CHANNELS 3 Zrotation Xrotation Yrotation
										JOINT LeftHandIndex2
										{
											OFFSET 5.48836 0.00000 0.00000
											CHANNELS 3 Zrotation Xrotation Yrotation
											JOINT LeftHandIndex3
											{
												OFFSET 3.01859 0.00000 0.00000
												CHANNELS 3 Zrotation Xrotation Yrotation
												End site
												{
													OFFSET 0.00000 0.00000 0.00000
												}
											}
										}
									}
									JOINT LeftHandMiddle1
									{
										OFFSET 14.26970 0.00000 -0.09147
										CHANNELS 3 Zrotation Xrotation Yrotation
										JOINT LeftHandMiddle2
										{
											OFFSET 6.17440 0.00000 0.00000
											CHANNELS 3 Zrotation Xrotation Yrotation
											JOINT LeftHandMiddle3
											{
												OFFSET 3.56744 0.00000 0.00000
												CHANNELS 3 Zrotation Xrotation Yrotation
												End site
												{
													OFFSET 0.00000 0.00000 0.00000
												}
											}
										}
									}
									JOINT LeftHandRing1
									{
										OFFSET 12.69180 0.00000 -3.06433
										CHANNELS 3 Zrotation Xrotation Yrotation
										JOINT LeftHandRing2
										{
											OFFSET 5.62556 0.00000 0.00000
											CHANNELS 3 Zrotation Xrotation Yrotation
											JOINT LeftHandRing3
											{
												OFFSET 3.56744 0.00000 0.00000
												CHANNELS 3 Zrotation Xrotation Yrotation
												End site
												{
													OFFSET 0.00000 0.00000 0.00000
												}
											}
										}
									}
									JOINT LeftHandPinky1
									{
										OFFSET 11.11390 0.00000 -6.03719
										CHANNELS 3 Zrotation Xrotation Yrotation
										JOINT LeftHandPinky2
										{
											OFFSET 4.52789 0.00000 0.00000
											CHANNELS 3 Zrotation Xrotation Yrotation
											JOINT LeftHandPinky3
											{
												OFFSET 2.46976 0.00000 0.00000
												CHANNELS 3 Zrotation Xrotation Yrotation
												End site
												{
													OFFSET 0.00000 0.00000 0.00000
												}
											}
										}
									}
								}
							}
						}
					}
					JOINT pCube4
					{
						OFFSET 0.00000 10.91090 1.10792
						CHANNELS 3 Zrotation Xrotation Yrotation
						End site
						{
							OFFSET 0.00000 0.00000 0.00000
						}
					}
				}
			}
		}
	}
	JOINT RightUpLeg
	{
		OFFSET -9.98441 0.00000 0.00000
		CHANNELS 3 Zrotation Xrotation Yrotation
		JOINT RightLeg
		{
			OFFSET 0.00000 -42.11790 0.00000
			CHANNELS 3 Zrotation Xrotation Yrotation
			JOINT RightFoot
			{
				OFFSET 0.00000 -45.00020 -0.00001
				CHANNELS 3 Zrotation Xrotation Yrotation
				JOINT RightForeFoot
				{
					OFFSET 0.00000 -3.74820 0.00000
					CHANNELS 3 Zrotation Xrotation Yrotation
					JOINT RightToeBase
					{
						OFFSET 0.00000 0.06325 14.43120
						CHANNELS 3 Zrotation Xrotation Yrotation
						End site
						{
							OFFSET 0.00000 0.00000 0.00000
						}
					}
				}
			}
		}
	}
	JOINT LeftUpLeg
	{
		OFFSET 9.98441 0.00000 0.00000
		CHANNELS 3 Zrotation Xrotation Yrotation
		JOINT LeftLeg
		{
			OFFSET 0.00000 -42.11800 0.00000
			CHANNELS 3 Zrotation Xrotation Yrotation
			JOINT LeftFoot
			{
				OFFSET 0.00000 -45.00070 0.00000
				CHANNELS 3 Zrotation Xrotation Yrotation
				JOINT LeftForeFoot
				{
					OFFSET 0.00000 -3.74824 0.00000
					CHANNELS 3 Zrotation Xrotation Yrotation
					JOINT LeftToeBase
					{
						OFFSET 0.00000 0.06325 14.43110
						CHANNELS 3 Zrotation Xrotation Yrotation
						End site
						{
							OFFSET 0.00000 0.00000 0.00000
						}
					}
				}
			}
		}
	}
}
MOTION
Frames: 4
Frame Time: 0.050000
0.011250914058876647 0.00465267206643207 0.00030129869647230114 0.04382082424453765 0.0023649467686401183 0.029976770124382813 -2.695764401997247 1.1616493727505417 -0.6719050840049221 -0.9730243168229824 3.650979947654099 0.4260700205488555 -1.2339749367577781 -1.9755762979892253 -0.9991147275132235 -0.5346889579390176 0.15949867861392997 -0.8626905740251294 -0.660886952966174 13.64126172979004 1.3869293889474767 -0.29675244503561693 0.6602669413088655 0.9770667169048782 -0.6960301928542821 -13.792245531088398 0.15415855249110466 -7.088220667336324 2.411924664369302 -12.707847203842084 64.00016743349605 5.400211220273357 24.4902134242993 17.616383239438477 -4.314532292288539 75.20553637131096 17.522717260521784 -0.39387841079044994 -3.4781839113004374 4.493855759314951 -0.12879663767627958 -1.5895741671829857 -0.04611462379248492 0.014062245984745111 -56.2057313962222 0.0074513920350218095 0.025957477101951905 -56.23417515822674 -38.77654958217127 0.014866113350232175 -0.0018759402097003742 0.0012819906007267032 0.017759017513332843 -0.030250869408318976 0.006391144433509377 -0.0017637634618904291 -0.036267926248232905 -36.682481650696104 0.03146880563511469 0.023597488088675695 -0.040519587223879994 -6.517550224934206e-05 -0.015639362224742534 0.010021044517578417 0.01439022132149002 -0.011370565250393252 -19.720900273245526 -0.025622962861577104 -0.009252086591720814 0.025599575862226012 -0.04719415408554342 -0.015913537209192797 -0.004795599536162748 -0.006618870720042142 -0.03400113235960894 24.066110507072583 -0.03787508952189514 -0.008178749474863155 28.855251146596675 -0.02364158356683979 -0.005912517317975364 28.818523112027734 -0.039382268376832404 0.011420936826664462 8.871355424552782 1.9732667654741394 12.048724125038987 -63.66455157259179 13.913508168630024 -24.171206285199528 -38.10925905178512 3.420094068770323 -77.79519316185154 -13.036602135642847 -0.22066896546760895 1.1249626760660592 -0.4768331220177295 0.0790749002366347 -8.155711323893952 0.03619480245788264 0.03668166080687203 44.54333423332097 -0.018872591861896253 -0.030039348572016948 44.60123167526132 12.465658457885688 0.012998854002000354 -0.03294009207600531 -0.03580961660690133 -0.012633797542490725 -0.004239594097133173 0.001682831414693396 0.0015656750483707758 0.017658110597853518 11.057127395891406 0.03772222584244578 0.007243182839865149 -0.026593026971501357 0.016006118237562313 -0.04580058357828211 0.04386020917003887 0.03142781875185001 -0.03957960486040202 4.8015560259678844 0.01064027737724061 -0.02025707446274435 -0.012603717249827923 0.02606206740825864 0.022116389513428078 -0.03212059318958427 0.01069184761633994 0.025841993307733582 -5.619315283639921 0.030155756428806062 0.031849239538986156 -6.759153695417511 -0.0016599894949275865 -0.013817483068335742 -6.697256951748295 0.008030800856216849 -0.012144609204309974 -0.04310910992112301 0.039528525309900156 0.021390128232097367 8.007012288710497 3.527595408510315 -19.203546086344506 -0.016175183727065962 10.365413292472835 0.04465846426251113 -5.623761206334707 -15.693331016500643 3.220009836793963 -0.048680255870566645 0.019360438135802162 -0.008596582478099038 -0.011330075413761612 4.724992377414354 -0.03540321064903831 12.446079579238027 -8.189410298857954 6.919730401313865 0.02843085877455153 46.38820286313738 0.04228757901876046 -4.313122021033873 -14.759639799578743 -3.8802539079399034 -0.005645256836870277 0.04490200521308183 -0.02177834259757889 0.0040028308108683505 -10.729548280251903 -0.043794176669971555 
0.04903650326100532 0.022034031731360825 0.03958602348726684 -0.0004920024336004669 0.046150584349631346 -0.006257256200919634 -2.6814229046202582 1.207571403136706 -0.695077401949519 -1.0151176477802129 3.659739521033158 0.3627395648130346 -1.2336759994710373 -1.9872957596053749 -1.051400794144528 -0.45438217263337477 0.2113348078218455 -0.7841711374687279 -0.6879747221051741 13.427077341122471 1.3555610494156196 -0.30796267900433993 0.5174924994810822 0.9740511205852127 -0.7181282971668789 -14.060587222846987 0.1105775674049208 -6.812919976369676 2.358529170109961 -12.786912922063403 63.6593905114986 6.397510602884337 23.289450355677797 18.951991779901597 -5.422668844148025 72.67721948465748 17.832576516299646 -0.34710890448796716 -3.4785559090484304 4.52585657135244 -0.09695733921441779 -1.6306677594513208 0.003017758963495142 0.03936567582394791 -56.23398098397333 0.03868958533851561 0.026120283275845726 -56.190578615316106 -38.748771691326525 -0.029074811762716368 0.032941440111879515 -0.017538391837322302 -0.012127103356503624 -0.031203722177245395 -0.036464963061830204 0.009644226467387029 0.02049592644476314 -36.699089152530426 -0.01070899980472119 0.014763644521541944 0.011870418312987924 0.037664483320914904 0.01613152261794646 -0.01750316599498371 -0.00087441022712076 0.03668929685757378 -19.743081553759115 0.004941730914506719 -0.04168177349093096 0.029722166244240587 -0.018224391551729682 0.04908493944399111 -0.008730531167307666 0.009456162621890423 -0.016098879612476618 24.036254124615137 -0.013324839997485818 -0.0047028808108355545 28.896636543791576 0.04036946278212328 -0.04143858331216814 28.831842740695407 0.020438624751907702 0.04205523113666642 8.500698709551328 1.8647393567036206 11.911769447271945 -64.12398370697915 14.3813255447168 -22.679123905162168 -42.805138318758736 4.5725967940722505 -76.61305534100954 -13.02600942968598 0.45855607102959267 0.7113902193035381 -0.44402091101427194 0.05886014300582789 -8.125289102273477 0.04639237920563322 -0.02451490271652264 44.60448687198608 -0.04390951486177656 0.011759427942783182 44.597463014972284 12.483441541748139 0.013922487172161192 0.006228047234484538 -0.035674072037136774 -0.007085753715245997 -0.04229584854651702 0.0011774145767580694 -0.006801792012020879 0.023574928629575307 11.092930127541642 0.037979840672020655 -0.029825564291916094 0.013572608349591314 -0.004199362862466141 0.03344407773974954 0.025717426607144413 -0.010620119052110152 0.01990312160941389 4.775238818053794 0.0014977293694593348 0.02035077856740601 0.045120581832620646 -0.02684536193100505 -0.020102226376511764 0.020219444757387094 0.04254923211317179 0.00779947246149811 -5.613916193782959 -0.027542606614958096 0.04796323285527745 -6.678137156964701 -0.028936268117554297 0.02482314286945562 -6.762232829101286 0.010309579334973331 0.013238383482473538 -0.04655566186340332 0.004038505816809928 -0.015486888743864448 8.0857017065178 3.5292264226199053 -19.230801182598803 -0.04468418331262982 10.436967870779275 0.023713855130871517 -5.659242314071537 -15.693705371977996 3.1612653853181722 -0.012204208588747979 -0.03146724727664544 0.033008935907457466 -0.0449578523767062 4.67600580890001 -0.023584663452859814 12.421617218320842 -8.269873450126717 6.888004108619711 0.01052660717383826 46.4281033810063 -0.009371191260596295 -4.2901415228970015 -14.79752416647375 -3.7952035530648756 0.004366775223414484 -0.011908173602032434 0.007491601784943766 -0.037616019981577646 -10.776313132167873 -0.006768653415067978 
0.038054883340744694 -0.016784522888305942 -0.005492596800398708 0.0072220174949540715 0.038135993323947924 0.041414837694360496 -2.748770852815743 1.3184106680579337 -0.7346456196880727 -1.0181779489476366 3.7011437034345382 0.3963025123112522 -1.2602160034333378 -1.9301153860474114 -1.0668005978877242 -0.3234097790262155 0.25915896447768727 -0.8481321958109459 -0.6091327542270106 13.172361708915327 1.2157286969019732 -0.33325544656378764 0.34472252143667953 0.5852888581627415 -0.6698406068122413 -14.255968897629895 0.10095541947358348 -6.637682576277357 2.215356507460074 -12.863347967425577 63.50729796891157 7.2013896815855425 21.634476489947307 21.66296080701947 -6.127983100188444 69.87244113145917 18.198822025448894 -0.2976455985575818 -3.5036369993083825 4.569796203971146 -0.13182400668534255 -1.6106227867048821 -0.030941826075628058 0.0290313664767613 -56.24143993047505 -0.031921371956205716 -0.035645770954512004 -56.19086763743405 -38.788509626966736 0.010813566358840775 0.018073709065342933 0.027870496332839733 -0.021885050435960944 -0.023690541222512927 0.04115751031139042 0.033053488027597624 0.010208798780169455 -36.700895988811446 0.0026003630866985403 -0.02103484298004791 0.04095874616675593 0.03221385216555118 0.011975636024846789 -0.0457991588626871 0.03311409134382227 0.020315492955807958 -19.79279317690082 0.0012448065087389078 0.042393724828099826 -0.008386512626092716 0.0034169290822586395 -0.021401123548989272 -0.006860316739899586 0.02936652908256611 0.00630810098337912 24.05980912463944 -0.030970157492455973 -0.03893794753549644 28.834059761015713 -0.049697676862415906 2.6578474676652407e-06 28.85804692905021 -0.012187088753572212 -0.015018620013764469 8.044628046418039 1.7242628324705147 11.957165978365447 -64.67217739676285 14.829852875955751 -20.273303849455175 -46.206173825595506 4.885757465849536 -74.42156861482222 -12.911917895118101 1.1595304830258513 0.24679604021639254 -0.5122578008968599 0.0788885533044516 -8.162069271871836 -0.03286289206229152 -0.008054925182159535 44.59988108333565 -0.022428392872428603 0.01294045116478694 44.59886425554874 12.429968166495469 0.013661516098905672 -0.02287055841116691 0.008132098633269224 0.0009648664038423661 0.008959876575477584 -0.03369969964391232 0.018576452940177974 -0.048838582013474775 11.130401566550203 0.04518035340312987 0.010942446845557752 0.003725531429837155 0.0009754039967398744 -0.0098836360488321 -0.02449615985260521 -0.0029408174001724226 -0.04961986718729829 4.812824663113504 0.032693421989249835 0.01278516232494733 -0.01825267645367496 -0.003848023360490287 -0.03500249240714564 -0.006230916975670444 -0.04924773893005804 -0.048202064544313125 -5.607352279995142 0.013875772741359215 0.0053064228945799135 -6.76815119406778 0.03226475654075136 0.013782089535613487 -6.679305671280088 0.0021507271106851805 -0.008867349734491874 0.00501262303304612 -0.006743871394667558 -0.049824027472972536 8.03026647149671 3.525172454975216 -19.22055294182239 -0.039558468743717996 10.431701619990617 0.037583806000176134 -5.609643611054248 -15.684025809479767 3.1694296768028414 0.01350692276326768 -0.03452815377617853 0.04129246414217087 -0.027347299296555196 4.6828267677542925 0.02953553681990368 12.487236688697271 -8.215971217346448 6.873528115180848 -0.017880024000737314 46.42378303489677 0.020976425407525784 -4.280160371591362 -14.712775242383815 -3.797606971813364 -0.03992864727811407 -0.03697003761567571 0.01926900724262172 0.02974284647869408 -10.75780702161301 -0.04701234680075898 
-0.00380044924275847 0.008196035433777659 0.0030747464014087523 -0.026314148822839785 0.026864920460165576 0.026904956741888114 -2.7990106010902274 1.4306565897105354 -0.6965600438349536 -1.0533441328742004 3.7929979035006016 0.36222114363450125 -1.2181578114357878 -1.8524196253629195 -0.9392429611745811 -0.2254012096533545 0.3577911516453078 -0.8578515454319894 -0.5442416560783476 13.033432793771755 0.9638097336112422 -0.3107174138273021 0.1617996834426495 -0.26411485354120456 -0.6086050225200901 -14.526045484723456 -0.0029750383240503206 -6.47998285860267 2.1224526608467817 -13.029421324756214 63.4445153814434 7.59426828015164 20.39012648884579 23.89738545704031 -6.833941822348808 67.4615131904212 18.33141018255014 -0.24899959464515545 -3.534649578650062 4.533885254594173 -0.13273211333123175 -1.588571737384385 -0.03531361396058535 -0.033303289195549445 -56.19030106180318 -0.0053857816340563205 -0.01965710419707251 -56.21899149228788 -38.74879450237854 -0.010008915559376922 0.015773123999699937 0.008160948241074594 0.043531877104170454 0.0009298627852939143 -0.022838903869519932 -0.0060358242281564195 0.016849000971827375 -36.68550557209412 -0.005158341985582544 0.04812628854128044 -0.013864076114865637 0.032934684876547 0.01535314590943056 -0.037896565035119546 0.03058640610553307 -0.005704111656394844 -19.76653527803165 -0.009198388532158689 -0.03371572755090564 -0.032268035762329526 -0.020123183618841904 0.009352037032080358 -0.03884307566246846 0.03599044658516789 -0.0167526460382794 24.035798509075214 0.01634187497481362 0.04866025561061671 28.825691507878524 -0.019789113246049244 0.02120687667804286 28.85755560142248 0.02770015324664977 0.03857747705660942 7.42158354390642 1.5746492039113809 12.034123111580023 -65.10371197558109 15.728049077941593 -17.36604714963974 -45.45020235516059 3.8071403257390015 -70.61695615931872 -12.537691058385887 1.7818994544870372 -0.03467471293631554 -0.466417220269423 0.03218607608483846 -8.123676494504707 -0.015207569588415154 -0.008170691596481861 44.610667080866996 -0.0006651141822921686 -0.03034497728469895 44.567625299231935 12.473878704418986 0.04745227627750376 0.006867174612942144 0.037903196439480875 0.029138597298490353 0.01277895513385015 -0.03632187397237272 0.024812368035632446 0.03174353594077772 11.07722416540266 0.022668039830505443 0.03098331064482103 0.035829034612317526 0.016544552870855232 0.03678585417912875 -0.020521720973196326 0.018631900547191386 0.019672258072078883 4.779816331751928 0.04189514369651942 0.04062189342625442 -0.004759693613597409 0.0009859824853170446 0.03190213943222694 0.03577903535184739 -0.04616549587223623 0.003300084671847323 -5.555839368388592 0.03978487205660205 -0.02345185671781118 -6.737903005079924 -0.010435211297664074 -0.0031408482746058835 -6.7450721614073 -0.023581029672907018 -0.011480222568329354 0.012119326333245755 0.011016642391589906 0.007070199093873642 8.04578885429447 3.4830355449239487 -19.21300991944456 -0.024599376565269435 10.417683380587661 0.0316126671980583 -5.610788109210436 -15.695572049937294 3.237187625566709 -0.013816849743373355 -0.021974577325326813 -0.000251113540838805 0.04753891321772475 4.691199335498627 -0.04553592580623676 12.450036657245137 -8.267575013820649 6.890449705727665 0.02250886989258081 46.38976540169434 0.020743589022651013 -4.334792820725316 -14.75350137720518 -3.80957398782182 -0.014347839091651523 -0.01934725500978178 -0.02469651687158275 -0.01998082732834949 -10.789690841471456 0.036749321238540064 
